<?xml version="1.0" encoding="UTF-8" standalone="no"?>
<!-- Created with Inkscape (http://www.inkscape.org/) -->

<svg
   width="17.952076mm"
   height="4.3062558mm"
   viewBox="0 0 17.952076 4.3062558"
   version="1.1"
   id="svg1"
   xml:space="preserve"
   xmlns="http://www.w3.org/2000/svg"
   xmlns:svg="http://www.w3.org/2000/svg"><defs
     id="defs1" /><g
     id="layer1"
     transform="translate(-96.063546,-146.27812)"><g
       id="g1"
       transform="matrix(0.04829841,0,0,0.04829841,91.757521,137.12943)"
       style="fill:#ffffff"><g
         stroke="#000000"
         fill-opacity="0"
         stroke-opacity="0"
         id="svg_1"
         style="fill:#ffffff" /><g
         fill-rule="nonzero"
         stroke="#ffffff"
         id="svg_2"
         fill="#000000"
         stroke-dasharray="0, 657, 697"
         stroke-width="0"
         style="fill:#ffffff" /><path
         id="letter-shape"
         style="fill:#ffffff"
         d="m 138.799,191.84974 c -23.83101,-3.35 -45.86562,13.25401 -49.21492,37.08602 -3.3493,23.83101 13.25491,45.86502 37.08592,49.21402 23.83101,3.35 45.86602,-13.25401 49.21502,-37.08602 3.349,-23.83101 -13.25501,-45.86502 -37.08602,-49.21402 z m -19.035,69.48602 c -0.796,-0.393 -1.125,-1.356 -0.732,-2.155 l 24.52001,-49.78602 c 0.393,-0.798 1.357,-1.125 2.155,-0.732 0.796,0.393 1.125,1.357 0.733,2.154 L 121.919,260.60176 c -0.393,0.798 -1.357,1.127 -2.155,0.734 z m 4.025,-43.73301 -25.30321,12.58301 20.85521,19.06801 c 0.656,0.601 0.701,1.619 0.101,2.274 -0.37,0.404 -0.903,0.578 -1.411,0.506 -0.311,-0.043 -0.612,-0.178 -0.86,-0.405 L 94.58459,230.97776 c -0.3916,-0.358 -0.5821,-0.886 -0.5082,-1.412 0.0739,-0.526 0.4025,-0.98 0.8776,-1.217 L 122.356,214.72275 c 0.798,-0.395 1.762,-0.071 2.157,0.724 0.396,0.796 0.071,1.761 -0.724,2.156 z m 46.72602,24.04801 -27.40201,13.62601 c -0.302,0.147 -0.63,0.194 -0.939,0.15 -0.507,-0.071 -0.973,-0.382 -1.219,-0.877 -0.395,-0.795 -0.071,-1.762 0.726,-2.158 l 25.30101,-12.58001 -20.85301,-19.06801 c -0.657,-0.6 -0.701,-1.617 -0.103,-2.272 0.6,-0.655 1.617,-0.702 2.273,-0.101 l 22.58501,20.65101 c 0.392,0.359 0.583,0.886 0.509,1.412 -0.074,0.525 -0.401,0.981 -0.878,1.217 z m 267.79301,34.92917 v -69.5669 h 22.53738 V 190.9149 h -61.51784 v 16.09813 h 21.15754 v 69.5669 z m -94.97894,-52.54889 -45.64968,-34.61097 v 87.15985 h 17.82292 v -51.62899 l 27.82676,20.12266 27.82676,-20.12266 v 51.62899 h 17.82292 v -87.15985 z m -72.55655,52.54889 h 19.43274 l -45.30472,-87.15985 -45.18974,87.15985 h 18.39786 l 5.51936,-11.49866 h 41.51017 z m -26.56191,-54.27368 13.10847,26.67689 h -25.98697 z" /></g></g></svg>
