<?xml version="1.0" encoding="UTF-8" standalone="no"?>
<!-- Created with Inkscape (http://www.inkscape.org/) -->

<svg
   width="207.04839mm"
   height="223.18188mm"
   viewBox="0 0 207.04839 223.18189"
   version="1.1"
   id="svg1"
   xml:space="preserve"
   xmlns="http://www.w3.org/2000/svg"
   xmlns:svg="http://www.w3.org/2000/svg"><defs
     id="defs1" /><g
     id="layer1"
     transform="translate(-1.7799719,-36.840308)"><path
       style="fill:#000000;stroke-width:1.19827"
       d="m 21.912241,259.57326 c -9.534862,-1.92787 -16.6741091,-8.29982 -19.5363551,-17.4367 -0.577449,-1.84334 -0.595914,-4.7553 -0.595914,-94.0034 V 56.032052 l 0.740629,-2.219305 c 2.642351,-7.91791 8.0569221,-13.356588 16.0626771,-16.134194 1.894364,-0.657252 2.127632,-0.66036 56.202306,-0.749115 l 54.300046,-0.08913 1.73721,1.283356 c 5.60928,4.143815 10.1676,8.493299 25.30492,24.145565 l 9.0981,9.407617 -0.66142,1.688902 c -1.85872,4.746126 -5.64472,10.448651 -9.59351,14.449901 l -2.58132,2.61561 -6.82344,-0.005 c -7.79309,-0.006 -9.59304,-0.29645 -13.13161,-2.1237 -2.96848,-1.53287 -6.6132,-5.19853 -8.03167,-8.077831 C 122.46577,76.29264 122.415,75.802595 122.415,61.037813 V 47.630401 H 73.447399 c -34.821591,0 -49.452953,0.102213 -50.647692,0.3538 -5.18509,1.091905 -9.016584,4.801615 -10.047268,9.727933 -0.252488,1.206815 -0.351502,26.752805 -0.351502,90.687066 0,79.17523 0.05404,89.21573 0.48898,90.89661 1.278283,4.93966 5.004617,8.34572 10.21886,9.34053 1.286168,0.2454 20.854241,0.31893 67.126312,0.25224 l 65.310951,-0.0941 1.79209,-0.72458 c 3.59105,-1.45188 6.04072,-4.10942 7.29632,-7.9154 0.72745,-2.20502 0.73414,-3.99605 0.0267,-7.15115 l -0.55498,-2.4753 -3.646,-3.28416 c -4.82635,-4.34736 -13.2399,-12.92095 -16.23802,-16.54687 -11.62725,-14.062 -18.74427,-28.39295 -20.87643,-42.0371 -0.57059,-3.65122 -0.22856,-12.3011 0.62987,-15.92962 2.27821,-9.62986 6.53037,-18.05653 14.39842,-28.53391 2.55286,-3.39949 7.1102,-9.11192 8.97919,-11.25504 7.90842,-9.06834 16.37752,-19.311021 19.05325,-23.043361 5.7535,-8.02544 9.4288,-15.93145 11.32185,-24.354627 0.39189,-1.743739 0.81776,-3.143271 0.94638,-3.11007 0.41749,0.107761 3.32081,4.919466 5.26368,8.723562 2.59306,5.077153 4.61987,10.382525 5.89083,15.419825 1.3879,5.50073 1.5476,7.10713 1.51792,15.268161 -0.0228,6.26809 -0.0953,7.12051 -0.9001,10.59661 -1.09889,4.74583 -2.31506,8.07044 -4.35805,11.91346 -3.00955,5.66123 -6.14307,9.51794 -17.3875,21.40044 -10.72332,11.33181 -13.46589,14.81635 -16.15806,20.52951 -2.74645,5.82831 -3.81435,10.55687 -3.81258,16.88162 0.002,8.14936 1.80201,14.82871 6.61395,24.5464 2.55173,5.1532 6.51701,11.68165 6.65628,10.95893 0.32282,-1.67511 -0.27678,-9.19895 -1.03563,-12.99524 -2.39697,-11.9914 -2.67885,-19.73899 -0.95873,-26.35036 0.6869,-2.64014 2.42758,-6.79422 3.9946,-9.53301 2.93401,-5.128 6.14698,-8.90539 15.3223,-18.01403 4.91822,-4.88246 10.02249,-10.24657 11.34285,-11.92023 4.92346,-6.2409 7.86188,-11.5363 11.15411,-20.10115 0.65424,-1.702 5.18618,11.05262 6.37461,17.94057 0.78197,4.53218 0.85081,12.3839 0.14439,16.46721 -0.73769,4.26405 -1.03424,5.34084 -2.41213,8.75869 -2.82232,7.00075 -7.38712,12.68695 -15.96044,19.88129 -9.59888,8.05496 -12.53156,12.05033 -13.84111,18.8566 -0.35301,1.83474 -0.44861,6.19039 -0.4523,20.60783 -0.005,19.93861 -0.0276,20.23176 -1.85776,24.26817 -2.91536,6.42971 -9.28915,11.3991 -16.52608,12.88473 -2.93139,0.60178 -4.75368,0.61762 -68.164331,0.59268 -52.483738,-0.0206 -65.553137,-0.10664 -67.213202,-0.44229 z m 15.059553,-59.51085 c -1.262993,-0.72432 -1.406235,-1.24902 -1.416612,-5.18932 -0.0096,-3.71175 0.01486,-3.85196 0.808068,-4.59713 l 0.818158,-0.76861 h 31.671591 31.671591 l 0.87104,0.87103 c 0.81718,0.81718 0.87853,1.0738 0.99243,4.15063 0.13614,3.67743 -0.29136,5.06732 -1.72635,5.61291 -1.219361,0.4636 -62.877126,0.38662 -63.689916,-0.0795 z m 0.262746,-33.36882 c -1.551191,-0.67474 -1.753759,-1.36548 -1.6361,-5.57879 0.08651,-3.10039 0.2053,-3.86645 0.671273,-4.33175 0.53437,-0.53362 2.332992,-0.56997 32.107631,-0.64907 35.195536,-0.0935 33.094946,-0.22215 33.730346,2.06583 0.47628,1.71498 0.40984,5.62335 -0.11695,6.88431 -0.91535,2.19075 0.97486,2.073 -33.061015,2.05925 -25.370333,-0.0108 -30.863966,-0.0882 -31.695125,-0.44978 z M 36.3233,133.08801 c -0.740414,-0.74041 -0.778196,-0.9643 -0.778196,-4.61153 0,-3.64888 0.03751,-3.87086 0.779418,-4.61277 l 0.779418,-0.77942 40.005721,0.0805 40.005709,0.0805 0.61168,0.81929 c 0.52319,0.70077 0.61167,1.35935 0.61167,4.55258 0,3.43313 -0.0573,3.79424 -0.71199,4.4912 l -0.712,0.75788 H 77.00812 37.101495 Z M 36.202202,99.741289 c -0.361411,-0.45945 -0.663305,-1.03013 -0.67089,-1.26818 -0.0072,-0.23804 -0.01378,-1.71683 -0.01378,-3.28619 0,-1.56937 0.006,-3.07389 0.01378,-3.34337 0.0072,-0.26949 0.363976,-0.84017 0.791988,-1.26818 l 0.778195,-0.77819 h 31.701081 31.701064 l 0.88333,0.7598 c 0.85574,0.73608 0.88434,0.8623 0.91598,4.0423 0.018,1.80538 -0.10102,3.67707 -0.26429,4.15933 -0.65203,1.925231 1.31787,1.818051 -33.410049,1.818051 H 36.8593 Z"
       id="path1" /></g></svg>
